<?xml version="1.0" encoding="UTF-8" standalone="no"?>
<!-- Generator: Adobe Illustrator 17.1.0, SVG Export Plug-In . SVG Version: 6.00 Build 0)  -->

<svg
   xmlns:dc="http://purl.org/dc/elements/1.1/"
   xmlns:cc="http://creativecommons.org/ns#"
   xmlns:rdf="http://www.w3.org/1999/02/22-rdf-syntax-ns#"
   xmlns:svg="http://www.w3.org/2000/svg"
   xmlns="http://www.w3.org/2000/svg"
   xmlns:sodipodi="http://sodipodi.sourceforge.net/DTD/sodipodi-0.dtd"
   xmlns:inkscape="http://www.inkscape.org/namespaces/inkscape"
   version="1.1"
   id="Capa_1"
   x="0px"
   y="0px"
   viewBox="0 0 211.65352 120.94489"
   xml:space="preserve"
   sodipodi:docname="amphitheatre.svg"
   width="56mm"
   height="32mm"
   inkscape:version="0.92.4 (f8dce91, 2019-08-02)"><metadata
   id="metadata124"><rdf:RDF><cc:Work
       rdf:about=""><dc:format>image/svg+xml</dc:format><dc:type
         rdf:resource="http://purl.org/dc/dcmitype/StillImage" /><dc:title></dc:title></cc:Work></rdf:RDF></metadata><defs
   id="defs122" /><sodipodi:namedview
   pagecolor="#ffffff"
   bordercolor="#666666"
   borderopacity="1"
   objecttolerance="10"
   gridtolerance="10"
   guidetolerance="10"
   inkscape:pageopacity="0"
   inkscape:pageshadow="2"
   inkscape:window-width="3775"
   inkscape:window-height="2100"
   id="namedview120"
   showgrid="false"
   units="mm"
   inkscape:snap-page="true"
   inkscape:showpageshadow="true"
   inkscape:pagecheckerboard="false"
   inkscape:zoom="9.0423933"
   inkscape:cx="104.8395"
   inkscape:cy="78.297855"
   inkscape:window-x="65"
   inkscape:window-y="28"
   inkscape:window-maximized="1"
   inkscape:current-layer="Capa_1" />
<path
   d="m 104.72841,120.94486 c -23.504,0 -41.916,-8.949 -41.916,-20.374 0,-11.424994 18.412,-20.373988 41.916,-20.373988 23.504,0 41.916,8.948994 41.916,20.373988 0,11.425 -18.412,20.374 -41.916,20.374 z m 0,-36.74799 c -20.553,0 -37.916,7.497996 -37.916,16.37399 0,8.876 17.363,16.374 37.916,16.374 20.553,0 37.916,-7.498 37.916,-16.374 0,-8.875994 -17.363,-16.37399 -37.916,-16.37399 z m 102.84,35.05599 h -53.68 c -0.761,0 -1.456,-0.432 -1.793,-1.114 -0.337,-0.682 -0.258,-1.497 0.205,-2.102 l 14.001,-18.293998 c -0.071,-1.817998 -0.448,-3.161998 -1.159,-5.115998 -5.719,-15.73899 -30.951,-27.180986 -60.068,-27.270986 -0.225,0.039 -0.467,0.039 -0.691,0 -29.612,0.089 -54.921,11.755996 -60.256,27.806986 -0.556,1.673 -1.196,4.197998 -1.318,6.202998 l 12.621,16.679998 c 0.458,0.605 0.534,1.418 0.196,2.098 -0.338,0.68 -1.032,1.109 -1.791,1.109 H 1.8894098 c -1.10400001,0 -1.99999999,-0.896 -1.99999999,-2 V 51.042878 c 0,-13.471 11.11000019,-26.004 31.28400019,-35.29 19.681,-9.0589996 45.803,-14.0479988 73.555,-14.0479988 27.752,0 53.875,4.9889992 73.555,14.0479988 20.175,9.286 31.285,21.819 31.285,35.29 v 66.209982 c 0,1.105 -0.896,2 -2,2 z m -49.631,-4 h 47.631 V 53.018878 l -15.445,20.181998 c -0.015,0.02 -0.029,0.039 -0.044,0.058 l -20.159,26.338986 c -0.011,0.015 -0.021,0.029 -0.033,0.044 z m -154.0480002,0 H 49.81341 l -10.583,-13.987 c -0.026,-0.031 -0.051,-0.064 -0.074,-0.098 l -11.317,-14.954992 c -0.021,-0.026 -0.041,-0.053 -0.06,-0.079 l -9.166,-12.112994 c -0.021,-0.026 -0.041,-0.053 -0.06,-0.079 L 9.5714103,62.071878 c -10e-4,0 -0.002,0 -0.003,0 l -5.6790005,-7.511 z M 31.41941,84.31587 l 8.054,10.642994 c 0.259,-1.11 0.563,-2.167 0.858,-3.056998 3.166,-9.526996 12.477,-17.647992 25.3,-23.116988 l -4.239,-10.786 c -17.581,6.187 -29.496,15.848996 -29.973,26.316992 z m 112.393,-15.497992 c 12.533,5.350996 21.74,13.224992 25.09,22.442988 0.276,0.762 0.516,1.464998 0.714,2.151998 l 8.086,-10.564994 c -0.397,-10.388994 -11.881,-19.600992 -29.419,-25.403992 z m -121.619,3.302998 5.92,7.823996 c 2.955,-10.424994 14.938,-19.656994 31.815,-25.670994 l -4.372,-11.123 c -19.746,6.728 -32.888,17.294 -33.363,28.969998 z m 127.555,-18.405998 c 16.851,5.654 28.466,14.469 31.295,24.766994 l 5.454,-7.126996 c -0.465,-11.582998 -13.139,-21.860998 -32.523,-28.389998 z m -136.57,6.493 5.659,7.479 c 3.021,-11.608 16.239,-21.732 35.247,-28.278 l -4.434,-11.279 c -21.643,7.496 -36,19.182 -36.472,32.078 z m 93.55,1.165 c 12.132,0.214 23.601,2.364 33.366,5.968 l 4.356,-11.083 c -10.917,-3.153 -23.84,-5.047 -37.723,-5.214 v 10.329 z m -41.532,-4.632 4.154,10.568 c 9.745,-3.588 21.206,-5.725 33.378,-5.937 v -10.326 c -13.574,0.188 -26.503,2.28 -37.532,5.695 z m 90.251,-17.524 c 18.694,6.362 31.495,16.23 34.425,27.729 l 5.978,-7.81 c -0.329,-12.776 -14.348,-24.134 -35.901,-31.369 z m -151.3580002,8.978 5.6900005,7.521 c 3.0739997,-12.833 17.5019997,-24.055 38.3919997,-31.35 l -3.761,-9.567 c -4.063,1.383 -7.928,2.914 -11.564,4.588 -17.167,7.901 -27.2430002,18.042 -28.7570002,28.808 z m 157.3370002,-24.189 c 20.797,7.045 34.922,17.955 37.86,30.639 l 5.872,-7.673 c -2.079,-10.311 -12.032,-19.982 -28.548,-27.585 -3.638,-1.674 -7.503,-3.205 -11.565,-4.588 z m -102.055,17.919 4.354,11.077 c 11.436,-3.598 24.815,-5.77 39.002,-5.956 v -11.428 c -15.854,0.18 -30.772,2.492 -43.356,6.307 z m 47.357,5.119 c 14.491,0.166 27.872,2.138 39.195,5.468 l 4.229,-10.76 c -12.484,-3.726 -27.39,-5.963 -43.425,-6.135 v 11.427 z m -53.272,-20.167 4.438,11.291 c 12.985,-3.99 28.345,-6.372 44.833,-6.551 v -12.048 c -18.072,0.187 -35.056,2.874 -49.271,7.308 z m 53.272,4.74 c 16.664,0.171 32.018,2.477 44.902,6.374 l 4.497,-11.439 c -14.127,-4.255 -31.109,-6.809 -49.399,-6.982 z m -58.505,-18.053 3.75,9.541 c 14.609,-4.603 32.028,-7.352 50.755,-7.535 V 5.7148788 c -19.71,0.172 -38.481,2.9029996 -54.505,7.8489992 z m 58.505,2.005 c 18.941,0.172 36.36,2.789 50.882,7.212 l 3.623,-9.218 c -16.024,-4.9439996 -34.795,-7.6759992 -54.505,-7.8489992 z"
   id="path87"
   inkscape:connector-curvature="0"
   style="fill-opacity:1;fill:#999999" />
<g
   id="g89"
   transform="translate(0,-88.734143)">
</g>
<g
   id="g91"
   transform="translate(0,-88.734143)">
</g>
<g
   id="g93"
   transform="translate(0,-88.734143)">
</g>
<g
   id="g95"
   transform="translate(0,-88.734143)">
</g>
<g
   id="g97"
   transform="translate(0,-88.734143)">
</g>
<g
   id="g99"
   transform="translate(0,-88.734143)">
</g>
<g
   id="g101"
   transform="translate(0,-88.734143)">
</g>
<g
   id="g103"
   transform="translate(0,-88.734143)">
</g>
<g
   id="g105"
   transform="translate(0,-88.734143)">
</g>
<g
   id="g107"
   transform="translate(0,-88.734143)">
</g>
<g
   id="g109"
   transform="translate(0,-88.734143)">
</g>
<g
   id="g111"
   transform="translate(0,-88.734143)">
</g>
<g
   id="g113"
   transform="translate(0,-88.734143)">
</g>
<g
   id="g115"
   transform="translate(0,-88.734143)">
</g>
<g
   id="g117"
   transform="translate(0,-88.734143)">
</g>
<path
   style="opacity:1;vector-effect:none;fill-opacity:1;stroke-width:0.11059019;stroke-linecap:butt;stroke-linejoin:miter;stroke-miterlimit:4;stroke-dasharray:none;stroke-dashoffset:0;stroke-opacity:1;fill:#999999"
   d="M 0.9776373,118.97397 C 0.47287893,118.70731 0.14492683,118.2981 -0.00234297,117.75118 -0.07939097,117.46505 -0.10499293,106.28813 -0.08178869,83.067949 -0.04354618,44.799195 -0.11603557,48.229589 0.72432659,44.920398 3.3653234,34.520637 12.896329,24.895427 28.081348,17.292983 51.579556,5.5285041 85.336023,-0.00558978 119.82447,2.2524557 c 30.44234,1.9931362 57.64247,10.3187403 74.00866,22.6530783 8.02403,6.047292 13.20152,13.043903 14.94547,20.196595 0.79375,3.255536 0.73452,0.160098 0.73452,38.382861 v 34.34631 l -0.30425,0.45977 c -0.16733,0.25287 -0.50127,0.56027 -0.74208,0.68312 -0.43575,0.22231 -0.56721,0.22337 -27.69552,0.22337 -18.98984,0 -27.35212,-0.0357 -27.56901,-0.11763 -0.99343,-0.37534 -1.51403,-1.58932 -1.10117,-2.56774 0.0826,-0.19573 3.27489,-4.43664 7.09399,-9.42426 3.8191,-4.98762 6.99757,-9.154378 7.06326,-9.259469 0.20949,-0.335127 -0.18704,-2.542342 -0.77318,-4.303772 -1.81136,-5.443374 -5.51735,-10.18607 -11.3313,-14.50107 -9.07539,-6.735571 -22.63233,-11.441296 -37.64709,-13.067612 -7.54093,-0.816792 -16.27192,-0.817136 -23.7216,-9.34e-4 -22.853051,2.503826 -41.291347,11.919381 -47.426924,24.218659 -0.7915,1.586628 -1.31998,2.984234 -1.774949,4.693983 -0.351087,1.319364 -0.784893,3.65085 -0.784893,4.218395 0,0.259326 1.25734,1.98679 6.165403,8.47065 3.390971,4.47969 6.289817,8.32184 6.441878,8.53811 0.231127,0.32873 0.276476,0.52021 0.276476,1.16736 0,0.92827 -0.269128,1.39978 -0.984371,1.72461 -0.438061,0.19894 -1.341961,0.20577 -26.884357,0.2034 -25.9119204,-0.002 -26.4390052,-0.007 -26.8357957,-0.21627 z M 49.723031,115.15434 C 49.651797,114.96871 4.4209977,55.145363 4.0770322,54.781843 3.8755631,54.568919 3.8706567,55.286038 3.8706567,84.945318 V 115.3269 H 26.829953 c 20.757777,0 22.952947,-0.0165 22.893078,-0.17256 z M 205.58716,84.195762 c 0,-17.122127 -0.0217,-31.131139 -0.0483,-31.131139 -0.0549,0 0.90042,-1.245791 -26.86036,35.026967 -11.41563,14.91587 -20.75569,27.14577 -20.75569,27.17754 0,0.0318 10.72449,0.0578 23.83219,0.0578 h 23.83218 z M 39.810445,93.817108 c 0.822114,-3.217012 2.261091,-6.254384 4.336844,-9.154149 1.195737,-1.67041 2.320316,-2.952262 4.195548,-4.782299 4.219337,-4.117649 9.529998,-7.578014 16.332967,-10.64237 0.567133,-0.255461 1.00702,-0.503519 0.977527,-0.551241 -0.02949,-0.04772 -0.981578,-2.450122 -2.115743,-5.338668 -1.134166,-2.888548 -2.096591,-5.282885 -2.138723,-5.320751 -0.04213,-0.03787 -1.022151,0.290988 -2.177818,0.730787 -13.106561,4.987806 -22.386214,11.757869 -25.990538,18.961653 -0.900373,1.799528 -1.3491,3.121655 -1.661002,4.893954 -0.305472,1.735769 -0.649168,1.105945 3.847001,7.049659 2.204892,2.914759 4.0383,5.265625 4.074239,5.224149 0.03594,-0.04148 0.179803,-0.523302 0.319698,-1.070724 z m 134.039125,-5.86128 3.89189,-5.087149 -0.0651,-0.798362 c -0.26048,-3.193778 -1.8783,-6.804034 -4.39976,-9.818296 -4.80502,-5.744102 -12.76363,-10.577821 -23.74022,-14.41878 l -1.25334,-0.438572 -0.1699,0.406199 c -0.0934,0.223409 -1.09019,2.745181 -2.21499,5.603938 -1.12479,2.858756 -2.06554,5.249091 -2.09056,5.311856 -0.025,0.06276 0.39111,0.307539 0.92474,0.543944 1.83599,0.813367 5.50726,2.702098 7.10116,3.653274 9.13124,5.449205 14.94738,11.936326 17.37851,19.38341 0.35018,1.072651 0.38052,1.123777 0.558,0.940017 0.10321,-0.106882 1.93902,-2.483547 4.07957,-5.281479 z M 28.530638,78.80449 c 0.489434,-1.445952 1.618932,-3.696349 2.56717,-5.114796 3.793104,-5.674023 10.084621,-10.744535 18.667778,-15.044896 3.010771,-1.508465 7.330878,-3.366636 9.481808,-4.078328 0.318614,-0.105422 0.604512,-0.232476 0.635332,-0.282342 0.04423,-0.07156 -4.18782,-11.026035 -4.307351,-11.149391 -0.04983,-0.05143 -3.046939,1.041494 -5.090953,1.856463 -7.598358,3.029543 -13.98453,6.668542 -18.800332,10.712894 -1.332114,1.11872 -3.695951,3.498923 -4.627446,4.659482 -2.776001,3.45865 -4.440985,7.157616 -4.819208,10.706465 l -0.109756,1.029823 2.953466,3.914175 c 1.624408,2.152798 2.978743,3.916387 3.009634,3.919088 0.03089,0.0027 0.228827,-0.505185 0.439858,-1.128637 z m 155.364602,-3.975382 2.67269,-3.505375 -0.12025,-1.078405 c -0.66491,-5.962958 -4.5596,-11.70561 -11.44754,-16.879192 -4.79778,-3.60365 -11.25636,-6.91266 -18.95738,-9.712684 -1.42813,-0.519256 -2.06791,-0.705042 -2.11871,-0.615265 -0.28298,0.499989 -4.17354,10.632657 -4.10532,10.691971 0.0475,0.04125 0.75811,0.312467 1.57924,0.602705 7.1965,2.54367 13.61971,5.848968 18.55973,9.550584 5.28338,3.958894 9.13244,8.797578 10.64477,13.381617 0.40746,1.235051 0.43115,1.286092 0.53936,1.161996 0.0444,-0.05092 1.28343,-1.669997 2.75341,-3.597952 z M 19.324156,66.277859 c 1.384547,-4.090795 3.808794,-7.732426 7.620382,-11.447115 4.077335,-3.973678 8.736094,-7.157292 15.190325,-10.380471 3.679128,-1.837321 6.7644,-3.137977 11.473732,-4.83697 0.258504,-0.09326 0.470008,-0.204588 0.470008,-0.247393 0,-0.0607 -1.708163,-4.428265 -4.318103,-11.040867 l -0.09625,-0.243852 -1.193473,0.427825 c -13.885156,4.97741 -24.496014,11.654758 -30.234015,19.026079 -1.311475,1.684786 -2.127491,2.973561 -2.975971,4.700102 -1.188318,2.418066 -1.886167,4.804086 -2.057682,7.035447 l -0.07232,0.940856 2.807123,3.71993 c 1.543918,2.04596 2.832006,3.722363 2.862418,3.725338 0.03041,0.003 0.266133,-0.617535 0.523824,-1.378909 z m 51.487765,0.556271 c 8.913245,-3.143447 20.421737,-5.158314 30.820459,-5.39594 l 1.05061,-0.02401 0.0287,-5.203814 0.0287,-5.203814 -1.3558,0.0349 C 88.884861,51.3632 76.497275,53.255683 66.109042,56.430585 l -0.963869,0.294582 0.228029,0.575065 c 0.125417,0.316285 1.048054,2.663486 2.050305,5.216002 1.736092,4.421451 1.895694,4.814523 1.954872,4.814523 0.01392,0 0.659,-0.223482 1.433502,-0.496628 z M 142.2951,61.856 c 1.17267,-2.980107 2.13293,-5.472603 2.13391,-5.53888 0.004,-0.261771 -7.45136,-2.069552 -11.77608,-2.855526 -7.92706,-1.440661 -15.36616,-2.181351 -24.35856,-2.425312 l -1.57698,-0.04278 0.0287,5.210342 0.0287,5.210341 0.99531,0.02442 c 10.419,0.255641 21.98343,2.272184 30.52289,5.322416 0.85155,0.304165 1.62065,0.544102 1.70911,0.533192 0.10389,-0.01281 0.91575,-1.938309 2.29296,-5.438212 z m 50.64372,1.159552 2.93175,-3.813173 -0.0538,-0.995312 c -0.20629,-3.815413 -2.06255,-8.127093 -5.1658,-11.999036 -1.08353,-1.351926 -3.48684,-3.792789 -4.91472,-4.991506 -5.16598,-4.336892 -12.05037,-8.237607 -20.18271,-11.435589 -2.70043,-1.061928 -5.54119,-2.066645 -5.62011,-1.987721 -0.0347,0.03474 -1.06537,2.612221 -2.2903,5.727747 -1.45856,3.709751 -2.18524,5.690077 -2.10571,5.738441 0.0668,0.04062 0.89211,0.348061 1.83403,0.683208 11.12867,3.959763 20.58904,9.700809 26.11538,15.848181 2.9278,3.256819 5.01071,6.742444 6.03009,10.090985 0.16879,0.554429 0.34812,0.994302 0.39854,0.977499 0.0504,-0.0168 1.41093,-1.74648 3.02339,-3.843724 z M 10.634723,53.064623 c 2.579669,-7.090682 9.061014,-14.052752 18.411225,-19.776794 5.146204,-3.15042 11.871977,-6.313001 18.153713,-8.536207 0.592696,-0.209764 1.007345,-0.415258 0.97889,-0.485125 -0.02715,-0.06667 -0.858548,-2.186481 -1.847546,-4.710702 -0.988999,-2.524221 -1.837882,-4.634586 -1.886407,-4.6897 -0.106845,-0.121356 -2.773771,0.81654 -6.125097,2.154052 C 29.504724,20.538119 22.353449,24.512987 16.659427,29.05939 9.8784727,34.473653 5.552339,40.679528 4.3103013,46.774311 4.190146,47.363922 4.091837,47.944184 4.091837,48.063781 c 0,0.119597 0.3391188,0.659201 0.7535973,1.19912 0.4144785,0.53992 1.6929368,2.223149 2.8410183,3.74051 l 2.0874212,2.758839 0.2594302,-0.878805 c 0.142687,-0.483344 0.413325,-1.301813 0.601419,-1.818822 z M 202.28044,50.796636 c 3.28613,-4.287804 3.0194,-3.685157 2.47139,-5.583916 -1.72914,-5.991158 -6.19741,-11.787159 -13.20962,-17.134809 -4.32736,-3.300128 -9.96104,-6.526739 -16.36735,-9.37418 -3.68914,-1.639731 -9.99899,-4.022804 -10.16119,-3.837636 -0.11348,0.129533 -3.55267,8.908774 -3.55228,9.067917 0,0.06627 0.80898,0.406455 1.79738,0.755962 7.28823,2.577185 14.11374,5.8935 19.54681,9.497221 6.95863,4.615604 11.79663,9.699689 14.54352,15.283247 0.76988,1.564922 1.60869,3.801084 1.77524,4.732543 0.0413,0.230739 0.12003,0.404519 0.17505,0.386178 0.055,-0.01834 1.3965,-1.724979 2.98105,-3.792527 z M 66.85177,52.127951 C 76.90341,49.262742 87.526451,47.64276 99.282343,47.182385 l 3.455947,-0.135339 v -5.744525 -5.744523 l -2.73711,0.07628 c -13.699435,0.381809 -26.959161,2.337366 -38.844805,5.728867 -0.881957,0.251661 -1.647579,0.495911 -1.701384,0.542777 -0.05406,0.04709 0.821528,2.42628 1.957061,5.317831 1.130189,2.87794 2.105397,5.367672 2.167132,5.532735 l 0.112244,0.300117 0.529564,-0.164855 c 0.29126,-0.09067 1.475111,-0.434382 2.630778,-0.763803 z m 79.15953,0.245483 c 0.86327,-2.134366 4.17094,-10.624372 4.14758,-10.645869 -0.018,-0.01656 -0.92848,-0.28115 -2.02332,-0.587979 -11.64729,-3.26415 -24.73323,-5.129721 -38.62362,-5.506308 l -2.79241,-0.07571 v 5.744789 5.744788 l 3.73242,0.133928 c 9.17466,0.32921 16.74817,1.18132 24.83898,2.794684 3.16578,0.631277 7.54873,1.675885 9.41633,2.244232 1.04067,0.316695 1.22905,0.33886 1.30404,0.153441 z M 60.050473,37.575598 c 9.60778,-2.774955 20.608838,-4.665495 31.79468,-5.463942 3.147793,-0.224689 6.763806,-0.390013 8.570737,-0.391853 0.82113,-8.85e-4 1.67959,-0.03237 1.90768,-0.07007 l 0.41472,-0.06855 v -6.012696 -6.012696 l -1.41003,6.64e-4 c -2.939478,0.0014 -9.783344,0.363876 -13.685534,0.724904 -12.481643,1.154796 -21.947643,2.95817 -33.895894,6.457528 -0.177889,0.0521 -0.264504,0.148021 -0.242901,0.269002 0.01847,0.103416 0.967519,2.562222 2.109007,5.464014 1.141488,2.90179 2.107688,5.363073 2.147111,5.469516 0.03942,0.106443 0.135447,0.193448 0.213388,0.193343 0.07794,-1.05e-4 1.012606,-0.251726 2.077036,-0.559159 z M 153.9138,32.305763 c 1.59364,-4.066773 2.20127,-5.738091 2.10732,-5.796165 -0.21132,-0.130597 -3.57567,-1.063244 -6.3373,-1.756789 -10.01957,-2.51628 -21.14928,-4.172457 -32.6794,-4.86292 -2.82271,-0.169033 -7.13408,-0.33184 -8.81957,-0.333045 l -1.46532,-0.001 v 6.019208 6.019208 l 0.5806,0.05857 c 0.31933,0.03222 1.84962,0.08578 3.40065,0.119031 10.05182,0.215496 21.42673,1.574546 31.13114,3.719483 2.29231,0.506662 7.03077,1.717186 8.57074,2.189545 0.57783,0.177241 1.10037,0.326131 1.1612,0.330867 0.0608,0.0047 1.11829,-2.56294 2.34994,-5.705947 z M 53.576489,22.657667 c 13.241645,-3.998939 29.43422,-6.527407 44.295829,-6.916787 1.307729,-0.03426 2.937552,-0.09062 3.621832,-0.125224 l 1.24414,-0.06293 V 10.642375 5.7320216 l -2.07357,6.525e-4 C 98.256835,5.7334372 94.401868,5.8825023 90.628661,6.1207583 76.15809,7.0344904 62.310449,9.3780132 49.986766,12.99884 c -0.942781,0.276999 -1.733393,0.520469 -1.756913,0.541045 -0.07809,0.06831 3.69032,9.553062 3.795898,9.553936 0.05701,4.42e-4 0.754843,-0.195799 1.550738,-0.436157 z M 159.46465,18.169426 c 0.9926,-2.526418 1.78399,-4.614223 1.75864,-4.63957 -0.0254,-0.02535 -1.16401,-0.367241 -2.53036,-0.759769 C 144.96956,8.8276353 129.75923,6.4919662 113.5913,5.8443692 112.04862,5.782578 109.87138,5.7320216 108.75298,5.7320216 h -2.03345 v 4.9047034 4.904703 l 1.0123,0.07186 c 0.55677,0.03952 1.63917,0.07218 2.40534,0.07258 2.79667,0.0015 9.15193,0.361528 13.77914,0.780686 11.06274,1.002125 22.46983,3.075444 31.5182,5.728652 1.03402,0.303199 1.95775,0.55497 2.05273,0.559491 0.12686,0.006 0.65169,-1.210936 1.97741,-4.585267 z"
   id="path4807"
   inkscape:connector-curvature="0" /><path
   style="opacity:1;vector-effect:none;fill:#c8c4b7;fill-opacity:1;stroke-width:0.11059019;stroke-linecap:butt;stroke-linejoin:miter;stroke-miterlimit:4;stroke-dasharray:none;stroke-dashoffset:0;stroke-opacity:1"
   d="m 3.9812469,85.135778 c 0,-18.837862 0.039106,-30.080532 0.1046312,-30.080532 0.057547,0 8.9076699,11.632706 19.6669399,25.850457 26.12315,34.520227 25.791587,34.080527 25.791587,34.203267 0,0.069 -8.127972,0.10734 -22.781579,0.10734 H 3.9812469 Z"
   id="path4809"
   inkscape:connector-curvature="0" /><path
   style="opacity:1;vector-effect:none;fill:#c8c4b7;fill-opacity:1;stroke-width:0.11059019;stroke-linecap:butt;stroke-linejoin:miter;stroke-miterlimit:4;stroke-dasharray:none;stroke-dashoffset:0;stroke-opacity:1"
   d="m 158.14397,115.15003 c 0,-0.0365 3.92781,-5.19964 8.72847,-11.47374 31.82109,-41.587768 38.35591,-50.104997 38.47282,-50.143966 0.10115,-0.03372 0.13131,7.045708 0.13131,30.820107 v 30.863879 h -23.6663 c -13.01646,0 -23.6663,-0.0298 -23.6663,-0.0663 z"
   id="path4811"
   inkscape:connector-curvature="0" /><path
   style="opacity:1;vector-effect:none;fill:#bfb8b1;fill-opacity:1;stroke-width:0.11059019;stroke-linecap:butt;stroke-linejoin:miter;stroke-miterlimit:4;stroke-dasharray:none;stroke-dashoffset:0;stroke-opacity:1"
   d="m 199.22541,54.142877 c -0.0281,-0.07603 -0.1729,-0.547653 -0.3217,-1.048052 -3.32986,-11.198407 -15.96697,-21.377179 -35.17875,-28.335325 -1.03612,-0.375262 -1.95326,-0.72519 -2.03809,-0.777617 -0.1238,-0.07651 0.19337,-0.98076 1.60738,-4.582609 0.96888,-2.468008 1.79871,-4.487508 1.84405,-4.487777 0.18353,-0.0011 3.71254,1.293137 5.91375,2.168803 7.2807,2.896346 13.80932,6.333343 18.91137,9.955907 7.95933,5.651291 13.11448,12.127213 14.81297,18.608107 0.27014,1.030758 0.27519,1.10177 0.10398,1.45949 -0.23571,0.49248 -5.35377,7.177311 -5.49512,7.177311 -0.0598,0 -0.13169,-0.06221 -0.15984,-0.138238 z"
   id="path4813"
   inkscape:connector-curvature="0" /><path
   style="opacity:1;vector-effect:none;fill:#bfb8b1;fill-opacity:1;stroke-width:0.11059019;stroke-linecap:butt;stroke-linejoin:miter;stroke-miterlimit:4;stroke-dasharray:none;stroke-dashoffset:0;stroke-opacity:1"
   d="m 189.85685,66.595429 c -0.0293,-0.05175 -0.16241,-0.458804 -0.29571,-0.904557 -1.08893,-3.641269 -3.71186,-7.709952 -7.25003,-11.246226 -5.78563,-5.782537 -14.1743,-10.703971 -24.81071,-14.55586 -1.01459,-0.367425 -1.8636,-0.686558 -1.88669,-0.709186 -0.0231,-0.02263 0.0848,-0.38303 0.23964,-0.800892 0.30413,-0.820522 4.07845,-10.45454 4.11444,-10.502225 0.0358,-0.04739 2.75148,0.903255 4.59513,1.608545 7.09935,2.715874 13.9771,6.348868 18.62129,9.836229 2.8228,2.119665 5.61295,4.736782 7.37117,6.914054 3.05019,3.777158 4.94518,8.130086 5.13953,11.805871 l 0.0614,1.161197 -2.72071,3.538886 c -2.87043,3.733638 -3.09364,4.004277 -3.17875,3.854164 z"
   id="path4815"
   inkscape:connector-curvature="0" /><path
   style="opacity:1;vector-effect:none;fill:#bfb8b1;fill-opacity:1;stroke-width:0.11059019;stroke-linecap:butt;stroke-linejoin:miter;stroke-miterlimit:4;stroke-dasharray:none;stroke-dashoffset:0;stroke-opacity:1"
   d="m 180.98287,78.030359 c -0.99498,-2.968588 -2.33734,-5.427341 -4.33202,-7.934847 -1.11676,-1.403875 -3.8778,-4.112044 -5.56783,-5.461224 -4.83169,-3.857218 -11.63003,-7.494693 -18.85557,-10.088733 -1.09487,-0.393068 -2.07323,-0.750224 -2.17414,-0.793678 -0.16257,-0.07001 -0.12926,-0.223817 0.29258,-1.350795 0.68701,-1.835423 3.59465,-9.214845 3.65436,-9.274551 0.12804,-0.128039 3.87938,1.246262 6.96377,2.551171 12.86491,5.442739 21.46246,12.606163 24.3289,20.270678 0.545,1.457263 0.89431,2.859027 1.05336,4.227081 l 0.12958,1.114676 -2.62905,3.43923 c -1.44598,1.891576 -2.67148,3.439229 -2.72333,3.439229 -0.0519,0 -0.11513,-0.06221 -0.14061,-0.138237 z"
   id="path4817"
   inkscape:connector-curvature="0" /><path
   style="opacity:1;vector-effect:none;fill:#bfb8b1;fill-opacity:1;stroke-width:0.11059019;stroke-linecap:butt;stroke-linejoin:miter;stroke-miterlimit:4;stroke-dasharray:none;stroke-dashoffset:0;stroke-opacity:1"
   d="m 169.59643,93.089117 c -0.0309,-0.0862 -0.21116,-0.604621 -0.4006,-1.152042 -1.45906,-4.2162 -3.68993,-7.709931 -7.22824,-11.320048 -2.95795,-3.017985 -6.236,-5.529541 -10.40373,-7.971067 -1.54898,-0.907416 -5.37391,-2.861413 -6.88499,-3.517255 l -0.80252,-0.348311 0.23292,-0.586581 c 0.61465,-1.547953 3.58443,-9.09201 3.87468,-9.842757 l 0.32914,-0.851323 1.08601,0.378016 c 3.53963,1.232064 6.39814,2.416668 9.46371,3.921881 5.17789,2.542375 9.0173,5.13984 12.26041,8.294488 3.54572,3.449008 5.66817,7.094173 6.30654,10.831074 0.33515,1.961866 0.69384,1.280755 -3.70565,7.036652 -2.13606,2.794623 -3.92599,5.126779 -3.97762,5.182568 -0.0555,0.06001 -0.11682,0.03743 -0.15006,-0.0553 z"
   id="path4819"
   inkscape:connector-curvature="0" /><path
   style="opacity:1;vector-effect:none;fill:#bfb8b1;fill-opacity:1;stroke-width:0.11059019;stroke-linecap:butt;stroke-linejoin:miter;stroke-miterlimit:4;stroke-dasharray:none;stroke-dashoffset:0;stroke-opacity:1"
   d="m 138.6248,66.764886 c -4.23438,-1.540119 -10.25972,-3.048888 -16.05552,-4.020361 -4.38755,-0.735428 -11.31185,-1.385638 -14.75611,-1.385638 h -0.98305 v -5.150455 -5.150455 l 1.96298,0.06819 c 12.45237,0.432547 22.10065,1.703162 31.98821,4.212635 3.3706,0.855462 3.56867,0.919693 3.50845,1.137711 -0.0813,0.294246 -3.67806,9.410965 -3.98777,10.107764 -0.15545,0.349741 -0.3227,0.633008 -0.37167,0.629483 -0.049,-0.0035 -0.63645,-0.205518 -1.30552,-0.448871 z"
   id="path4821"
   inkscape:connector-curvature="0" /><path
   style="opacity:1;vector-effect:none;fill:#bfb8b1;fill-opacity:1;stroke-width:0.11059019;stroke-linecap:butt;stroke-linejoin:miter;stroke-miterlimit:4;stroke-dasharray:none;stroke-dashoffset:0;stroke-opacity:1"
   d="m 145.31551,52.293243 c -1.08401,-0.348279 -4.93009,-1.325117 -7.18836,-1.825721 -7.12026,-1.57839 -14.93792,-2.662332 -22.72629,-3.15107 -1.9284,-0.121012 -6.9523,-0.3303 -7.99014,-0.332858 l -0.5806,-0.0014 V 41.324507 35.66682 l 3.01376,0.07487 c 13.23207,0.328738 26.81833,2.268407 38.12579,5.443104 1.00361,0.281773 1.88407,0.544776 1.95658,0.58445 0.19141,0.104727 -3.93988,10.63049 -4.16838,10.620272 -0.0912,-0.0041 -0.2903,-0.04739 -0.44236,-0.09625 z"
   id="path4823"
   inkscape:connector-curvature="0" /><path
   style="opacity:1;vector-effect:none;fill:#bfb8b1;fill-opacity:1;stroke-width:0.11059019;stroke-linecap:butt;stroke-linejoin:miter;stroke-miterlimit:4;stroke-dasharray:none;stroke-dashoffset:0;stroke-opacity:1"
   d="m 150.56854,37.630617 c -11.21497,-3.39871 -26.54045,-5.659341 -40.55895,-5.982769 l -3.17947,-0.07335 v -5.954054 -5.954053 l 1.7418,2.51e-4 c 4.37252,6.31e-4 12.45926,0.500407 17.99855,1.112345 8.38297,0.926085 15.61697,2.203607 23.11335,4.081809 4.28309,1.073119 6.24835,1.649082 6.24835,1.831221 0,0.182778 -2.6448,7.030361 -4.28088,11.083517 -0.069,0.170962 -0.0178,0.177812 -1.08275,-0.144912 z"
   id="path4825"
   inkscape:connector-curvature="0" /><path
   style="opacity:1;vector-effect:none;fill:#bfb8b1;fill-opacity:1;stroke-width:0.11059019;stroke-linecap:butt;stroke-linejoin:miter;stroke-miterlimit:4;stroke-dasharray:none;stroke-dashoffset:0;stroke-opacity:1"
   d="m 156.7063,22.468655 c -1.15679,-0.376098 -5.76116,-1.602733 -7.96249,-2.121263 -10.94908,-2.57908 -22.72578,-4.13087 -35.38886,-4.663108 -1.42938,-0.06008 -3.37024,-0.110025 -4.31302,-0.110994 -0.94278,-9.69e-4 -1.82612,-0.03177 -1.96298,-0.06845 l -0.24883,-0.06668 V 10.58877 5.739378 l 2.01827,0.055387 c 4.28308,0.1175406 8.11558,0.287 11.19726,0.4951018 12.62845,0.8527822 25.30359,2.9190803 36.29107,5.9161602 2.75677,0.751971 4.79319,1.360302 4.79319,1.431852 0,0.05855 -2.79778,7.17958 -3.22667,8.212662 -0.36393,0.876622 -0.37857,0.884182 -1.19694,0.618114 z"
   id="path4827"
   inkscape:connector-curvature="0" /><path
   style="opacity:1;vector-effect:none;fill:#bfb8b1;fill-opacity:1;stroke-width:0.11059019;stroke-linecap:butt;stroke-linejoin:miter;stroke-miterlimit:4;stroke-dasharray:none;stroke-dashoffset:0;stroke-opacity:1"
   d="m 51.810583,22.514083 c -1.151372,-2.835916 -3.476179,-8.862922 -3.434706,-8.904395 0.07871,-0.07871 1.880227,-0.608956 4.762709,-1.401827 C 63.231411,9.4316729 75.396866,7.374265 87.14507,6.4567234 91.406462,6.1239063 94.992571,5.9475006 100.60943,5.7943932 l 2.01827,-0.055015 v 4.8601828 4.860183 l -0.24883,0.05035 c -0.13686,0.02769 -1.66715,0.07865 -3.40065,0.11324 -9.06058,0.180787 -19.236148,1.214884 -28.45895,2.892152 -5.717662,1.03982 -12.484325,2.661111 -17.056874,4.086822 -0.67345,0.209979 -1.277674,0.381781 -1.342722,0.381781 -0.06505,0 -0.204139,-0.211503 -0.309091,-0.470008 z"
   id="path4829"
   inkscape:connector-curvature="0" /><path
   style="opacity:1;vector-effect:none;fill:#bfb8b1;fill-opacity:1;stroke-width:0.11059019;stroke-linecap:butt;stroke-linejoin:miter;stroke-miterlimit:4;stroke-dasharray:none;stroke-dashoffset:0;stroke-opacity:1"
   d="m 55.737064,32.539819 c -1.185864,-3.016495 -2.169299,-5.519438 -2.18541,-5.562094 -0.0324,-0.08579 2.889087,-0.959476 5.740433,-1.716711 12.365392,-3.283887 26.577246,-5.248613 40.211437,-5.559055 l 3.124176,-0.07114 v 5.989652 5.989651 l -1.57591,0.0011 c -3.184042,0.0023 -8.977745,0.334349 -13.630245,0.781181 -9.410792,0.903823 -18.933413,2.665606 -27.127842,5.018926 -1.173953,0.337141 -2.194324,0.612985 -2.267491,0.612985 -0.07317,0 -1.103283,-2.468042 -2.289148,-5.484538 z"
   id="path4831"
   inkscape:connector-curvature="0" /><path
   style="opacity:1;vector-effect:none;fill:#bfb8b1;fill-opacity:1;stroke-width:0.11059019;stroke-linecap:butt;stroke-linejoin:miter;stroke-miterlimit:4;stroke-dasharray:none;stroke-dashoffset:0;stroke-opacity:1"
   d="m 62.55189,49.885759 c -2.107246,-5.375102 -3.072649,-7.898774 -3.035344,-7.934736 0.08997,-0.08673 4.249228,-1.226876 6.450503,-1.768224 9.905944,-2.436118 20.255869,-3.873187 31.462909,-4.368571 1.368553,-0.06049 3.097912,-0.110501 3.843012,-0.111127 l 1.35473,-0.0011 v 5.6401 5.6401 l -0.41472,9.95e-4 c -0.89064,0.0023 -5.920498,0.226458 -7.492482,0.33398 -10.101436,0.690924 -19.886943,2.373841 -28.594886,4.917763 -1.129282,0.329907 -2.124594,0.626933 -2.211804,0.660059 -0.120033,0.04559 -0.45097,-0.685634 -1.361918,-3.009254 z"
   id="path4833"
   inkscape:connector-curvature="0" /><path
   style="opacity:1;vector-effect:none;fill:#bfb8b1;fill-opacity:1;stroke-width:0.11059019;stroke-linecap:butt;stroke-linejoin:miter;stroke-miterlimit:4;stroke-dasharray:none;stroke-dashoffset:0;stroke-opacity:1"
   d="m 67.321155,61.996166 -2.054084,-5.224003 0.847645,-0.254271 c 5.535287,-1.660441 11.965329,-3.064285 18.065707,-3.94421 5.622562,-0.811004 9.866218,-1.176905 16.760777,-1.445163 l 1.6865,-0.06562 v 5.147994 5.147994 h -1.03834 c -0.57109,0 -1.927201,0.05062 -3.013585,0.112497 -9.867984,0.562013 -19.070605,2.298397 -27.572604,5.2025 -0.879608,0.300456 -1.605733,0.546283 -1.61361,0.546283 -0.0079,0 -0.938659,-2.350801 -2.068406,-5.224001 z"
   id="path4835"
   inkscape:connector-curvature="0" /><path
   style="opacity:1;vector-effect:none;fill:#bfb8b1;fill-opacity:1;stroke-width:0.11059019;stroke-linecap:butt;stroke-linejoin:miter;stroke-miterlimit:4;stroke-dasharray:none;stroke-dashoffset:0;stroke-opacity:1"
   d="m 39.203755,94.490438 c -0.06057,-0.08602 -1.711917,-2.268212 -3.669665,-4.849305 -1.957748,-2.581093 -3.668788,-4.902491 -3.802311,-5.158661 -0.20888,-0.400743 -0.2324,-0.56905 -0.16849,-1.205663 0.102412,-1.020132 0.552849,-2.757107 1.023552,-3.947016 1.843263,-4.659663 6.116974,-9.290937 12.337254,-13.369461 4.255447,-2.790218 9.834192,-5.509403 15.529957,-7.569592 l 0.901234,-0.325981 0.835564,2.117072 c 0.45956,1.16439 1.405104,3.560275 2.101208,5.324188 l 1.265644,3.207116 -0.569458,0.267334 C 60.19572,71.230335 56.61504,73.227755 53.830262,75.204755 46.382666,80.492033 41.71926,86.52427 39.872686,93.259244 c -0.199379,0.727193 -0.406675,1.336891 -0.460658,1.354885 -0.05398,0.01799 -0.147705,-0.03767 -0.208273,-0.123691 z"
   id="path4837"
   inkscape:connector-curvature="0" /><path
   style="opacity:1;vector-effect:none;fill:#bfb8b1;fill-opacity:1;stroke-width:0.11059019;stroke-linecap:butt;stroke-linejoin:miter;stroke-miterlimit:4;stroke-dasharray:none;stroke-dashoffset:0;stroke-opacity:1"
   d="m 25.116632,75.890869 -2.896582,-3.825991 0.06775,-0.68056 c 0.778462,-7.819865 6.989781,-15.221902 18.018885,-21.473131 3.857341,-2.186316 9.473629,-4.695517 14.079709,-6.29042 l 1.137218,-0.393774 0.09723,0.24638 c 1.235519,3.130769 3.985411,10.178339 4.070711,10.432643 l 0.1153,0.343737 -1.564691,0.587925 c -4.100426,1.540717 -9.268294,3.961744 -12.513119,5.862108 -6.657002,3.898739 -11.64791,8.295455 -14.745425,12.989908 -0.949105,1.438422 -2.090819,3.715493 -2.507693,5.001425 -0.181898,0.561099 -0.36042,1.02143 -0.396717,1.02296 -0.0363,0.0015 -1.369457,-1.718916 -2.962576,-3.82321 z"
   id="path4839"
   inkscape:connector-curvature="0" /><path
   style="opacity:1;vector-effect:none;fill:#bfb8b1;fill-opacity:1;stroke-width:0.11059019;stroke-linecap:butt;stroke-linejoin:miter;stroke-miterlimit:4;stroke-dasharray:none;stroke-dashoffset:0;stroke-opacity:1"
   d="m 15.982047,63.819519 -2.740263,-3.621829 0.06954,-0.980765 c 0.03825,-0.539422 0.198486,-1.555703 0.356089,-2.258404 0.977411,-4.357963 3.468138,-8.542496 7.452433,-12.520423 6.210292,-6.200366 15.501315,-11.580661 27.291809,-15.804289 l 1.212855,-0.434473 2.189185,5.577051 c 1.204052,3.067377 2.168898,5.592947 2.144105,5.612376 -0.0248,0.01943 -0.592503,0.226105 -1.261573,0.45928 -4.567652,1.591851 -10.526728,4.291993 -14.54261,6.589462 -9.981155,5.710174 -16.779534,12.865779 -18.981803,19.97922 -0.173902,0.561712 -0.346182,1.022044 -0.382844,1.02296 -0.03666,9.14e-4 -1.299777,-1.62816 -2.806923,-3.620166 z"
   id="path4841"
   inkscape:connector-curvature="0" /><path
   style="opacity:1;vector-effect:none;fill:#bfb8b1;fill-opacity:1;stroke-width:0.11059019;stroke-linecap:butt;stroke-linejoin:miter;stroke-miterlimit:4;stroke-dasharray:none;stroke-dashoffset:0;stroke-opacity:1"
   d="M 6.9249775,51.849739 4.1733133,48.203322 4.2494706,47.62039 C 4.681374,44.314465 6.7334224,39.883953 9.4726784,36.343131 14.980836,29.223164 24.514758,22.775482 37.305412,17.520171 c 2.103439,-0.864242 6.214587,-2.401206 6.820074,-2.549703 0.272002,-0.06671 0.306003,0.0076 2.101214,4.589208 1.003606,2.561359 1.81618,4.688889 1.805722,4.727845 -0.01046,0.03896 -0.781826,0.351313 -1.714148,0.694125 -8.662068,3.18502 -16.378641,7.186253 -22.157038,11.488967 -6.059048,4.511691 -10.383124,9.43763 -12.781176,14.560174 -0.544538,1.1632 -1.5375331,3.926813 -1.5375331,4.279118 0,0.103236 -0.037324,0.187376 -0.082943,0.186977 -0.045618,-4.43e-4 -1.3211915,-1.641613 -2.8346064,-3.647143 z"
   id="path4843"
   inkscape:connector-curvature="0" /></svg>