<?xml version="1.0" encoding="UTF-8" standalone="no"?>
<!-- Created with Inkscape (http://www.inkscape.org/) -->

<svg
   xmlns:dc="http://purl.org/dc/elements/1.1/"
   xmlns:cc="http://creativecommons.org/ns#"
   xmlns:rdf="http://www.w3.org/1999/02/22-rdf-syntax-ns#"
   xmlns:svg="http://www.w3.org/2000/svg"
   xmlns="http://www.w3.org/2000/svg"
   xmlns:sodipodi="http://sodipodi.sourceforge.net/DTD/sodipodi-0.dtd"
   xmlns:inkscape="http://www.inkscape.org/namespaces/inkscape"
   width="424mm"
   height="387mm"
   viewBox="0 0 424 387"
   version="1.1"
   id="svg7790"
   inkscape:version="0.92.4 (f8dce91, 2019-08-02)"
   sodipodi:docname="parthenon.svg">
  <defs
     id="defs7784" />
  <sodipodi:namedview
     id="base"
     pagecolor="#ffffff"
     bordercolor="#666666"
     borderopacity="1.0"
     inkscape:pageopacity="0.0"
     inkscape:pageshadow="2"
     inkscape:zoom="0.7"
     inkscape:cx="1188.0128"
     inkscape:cy="968.55627"
     inkscape:document-units="mm"
     inkscape:current-layer="g7930"
     showgrid="false"
     units="mm"
     inkscape:snap-grids="true"
     inkscape:snap-page="true"
     inkscape:window-width="3775"
     inkscape:window-height="2100"
     inkscape:window-x="65"
     inkscape:window-y="28"
     inkscape:window-maximized="1" />
  <metadata
     id="metadata7787">
    <rdf:RDF>
      <cc:Work
         rdf:about="">
        <dc:format>image/svg+xml</dc:format>
        <dc:type
           rdf:resource="http://purl.org/dc/dcmitype/StillImage" />
        <dc:title />
      </cc:Work>
    </rdf:RDF>
  </metadata>
  <g
     inkscape:label="Layer 1"
     inkscape:groupmode="layer"
     id="layer1"
     transform="translate(0,90)">
    <g
       id="g7930"
       transform="matrix(0.96466254,0,0,0.96466254,166.23392,-107.36484)">
      <rect
         id="rect7900"
         height="121.333"
         width="241.33299"
         style="fill:#aca793"
         y="231.04918"
         x="-70.245384" />
      <path
         id="path7902"
         d="m 194.92161,371.93918 v -31 h -14.08 l -3.58,-89 -0.36,-9 h 18.02 v -31 h -10e-4 10e-4 l -146.499998,-47.93 -146.5,47.93 h 0.001 -0.001 v 31 h 18.01 l -0.36,9 -3.57,89 h -14.08 v 31 h -20.000002 v 25 h 333 v -25 z m -215.599998,-120 -3.57,89 h -33.91 l -3.58,-89 -0.36,-9 h 41.78 z m 59.75,0 -3.57,89 H 1.5916121 l -3.58,-89 -0.36,-9 H 39.431612 Z m 59.749997,0 -3.57,89 h -33.91 l -3.58,-89 -0.36,-9 h 41.78 z m 59.750001,0 -3.57,89 h -33.91 l -3.58,-89 -0.36,-9 h 41.78 z"
         style="fill:#bfb8b1"
         inkscape:connector-curvature="0" />
      <polygon
         id="polygon7904"
         points="220.745,178.08 285.703,199.331 155.787,199.331 "
         style="fill:#bec8b7"
         transform="translate(-172.32339,-0.39182219)" />
      <g
         id="g7910"
         transform="translate(-172.32339,-0.39182219)">
        <path
           id="path7906"
           d="M 439.48,418.972 H 0 c 0,-4.43 1.13,-8.59 3.12,-12.22 1.17,-2.14 2.64,-4.09 4.35,-5.8 4.61,-4.62 10.99,-7.47 18.03,-7.47 h 388.48 c 9.65,0 18.05,5.36 22.38,13.27 1.99,3.63 3.12,7.79 3.12,12.22 z"
           style="fill:#cccccc"
           inkscape:connector-curvature="0" />
        <path
           id="path7908"
           d="M 439.48,418.972 H 0 c 0,-4.43 1.13,-8.59 3.12,-12.22 h 433.24 c 1.99,3.63 3.12,7.79 3.12,12.22 z"
           style="fill:#999999"
           inkscape:connector-curvature="0" />
      </g>
      <path
         id="path7912"
         d="m 166.97861,20.116178 c -27.75,0 -50.24,22.5 -50.24,50.25 0,27.75 22.49,50.250002 50.24,50.250002 27.75,0 50.25,-22.500002 50.25,-50.250002 0,-27.75 -22.5,-50.25 -50.25,-50.25 z"
         style="fill:#bec8b7"
         inkscape:connector-curvature="0" />
      <path
         id="path7914"
         d="m 116.73861,70.366178 c 0,27.75 22.49,50.250002 50.24,50.250002 6.12,0 11.98,-1.09 17.4,-3.1 2.01,-5.42 3.1,-11.28 3.1,-17.4 0,-27.750002 -22.49,-50.250002 -50.25,-50.250002 -6.11,0 -11.97,1.09 -17.39,3.09 -2.01,5.43 -3.1,11.29 -3.1,17.41 z"
         style="fill:#bfb8b1"
         inkscape:connector-curvature="0" />
      <polygon
         id="polygon7916"
         points="110.225,243.331 110.585,252.331 91.895,252.331 92.255,243.331 "
         style="fill:#bec8b7"
         transform="translate(-172.32339,-0.39182219)" />
      <polygon
         id="polygon7918"
         points="169.975,243.331 170.335,252.331 151.645,252.331 152.005,243.331 "
         style="fill:#bec8b7"
         transform="translate(-172.32339,-0.39182219)" />
      <polygon
         id="polygon7920"
         points="229.725,243.331 230.085,252.331 211.395,252.331 211.755,243.331 "
         style="fill:#bec8b7"
         transform="translate(-172.32339,-0.39182219)" />
      <polygon
         id="polygon7922"
         points="289.475,243.331 289.835,252.331 271.145,252.331 271.505,243.331 "
         style="fill:#bec8b7"
         transform="translate(-172.32339,-0.39182219)" />
      <polygon
         id="polygon7924"
         points="349.585,252.331 330.895,252.331 331.255,243.331 349.225,243.331 "
         style="fill:#bec8b7"
         transform="translate(-172.32339,-0.39182219)" />
      <polygon
         id="polygon7926"
         points="327.245,363.331 353.245,363.331 367.245,363.331 367.245,372.331 74.245,372.331 74.245,363.331 88.245,363.331 114.245,363.331 147.995,363.331 173.995,363.331 207.745,363.331 233.745,363.331 267.495,363.331 293.495,363.331 "
         style="fill:#bec8b7"
         transform="translate(-172.32339,-0.39182219)" />
      <polygon
         id="polygon7928"
         points="327.245,212.331 353.245,212.331 367.245,212.331 367.245,221.331 74.245,221.331 74.245,212.331 88.245,212.331 114.245,212.331 147.995,212.331 173.995,212.331 207.745,212.331 233.745,212.331 267.495,212.331 293.495,212.331 "
         style="fill:#bec8b7"
         transform="translate(-172.32339,-0.39182219)" />
      <g
         id="g8140"
         transform="matrix(0.05482166,0,0,0.05480775,186.83795,158.70455)"
         style="fill:#bfb8b1">
        <g
           id="g8078"
           style="fill:#bfb8b1">
          <g
             id="g8076"
             style="fill:#bfb8b1">
            <g
               id="group-2svg"
               style="fill:#bfb8b1">
              <path
                 d="m 409.93,209.297 c 0,18.056 -14.627,32.692 -32.683,32.692 -18.047,0 -32.683,-14.636 -32.683,-32.692 0,-18.056 14.636,-32.683 32.683,-32.683 18.056,0 32.683,14.627 32.683,32.683 z"
                 id="path-1_10_"
                 inkscape:connector-curvature="0"
                 style="fill:#bfb8b1" />
              <path
                 d="m 222.011,209.297 c 0,18.056 -14.636,32.692 -32.683,32.692 -18.047,0 -32.683,-14.636 -32.683,-32.692 0,-18.056 14.636,-32.683 32.683,-32.683 18.047,0 32.683,14.627 32.683,32.683 z"
                 id="path-2_10_"
                 inkscape:connector-curvature="0"
                 style="fill:#bfb8b1" />
              <path
                 d="m 308.702,451.466 h -45.388 c -57.483,0 -104.253,-46.205 -104.253,-103.014 0,-7.443 6.034,-13.468 13.468,-13.468 7.434,0 13.468,6.025 13.468,13.468 0,42.659 33.958,76.078 77.317,76.078 h 45.388 c 43.359,0 77.317,-32.863 77.317,-74.821 0,-7.443 6.034,-13.468 13.468,-13.468 7.443,0 13.468,6.025 13.468,13.468 0.001,57.06 -45.792,101.757 -104.253,101.757 z"
                 id="path-3_10_"
                 inkscape:connector-curvature="0"
                 style="fill:#bfb8b1" />
              <path
                 d="M 283.714,567.419 C 127.311,567.419 0.072,440.144 0.072,283.705 0.072,127.275 127.311,0 283.714,0 c 156.394,0 283.633,127.275 283.633,283.705 0,156.438 -127.239,283.714 -283.633,283.714 z m 0,-540.473 c -141.552,0 -256.705,115.181 -256.705,256.759 0,141.588 115.154,256.768 256.705,256.768 141.543,0 256.696,-115.181 256.696,-256.768 0,-141.579 -115.153,-256.759 -256.696,-256.759 z"
                 id="path-4_10_"
                 inkscape:connector-curvature="0"
                 style="fill:#bfb8b1" />
            </g>
          </g>
        </g>
        <g
           id="g8080"
           style="fill:#bfb8b1" />
        <g
           id="g8082"
           style="fill:#bfb8b1" />
        <g
           id="g8084"
           style="fill:#bfb8b1" />
        <g
           id="g8086"
           style="fill:#bfb8b1" />
        <g
           id="g8088"
           style="fill:#bfb8b1" />
        <g
           id="g8090"
           style="fill:#bfb8b1" />
        <g
           id="g8092"
           style="fill:#bfb8b1" />
        <g
           id="g8094"
           style="fill:#bfb8b1" />
        <g
           id="g8096"
           style="fill:#bfb8b1" />
        <g
           id="g8098"
           style="fill:#bfb8b1" />
        <g
           id="g8100"
           style="fill:#bfb8b1" />
        <g
           id="g8102"
           style="fill:#bfb8b1" />
        <g
           id="g8104"
           style="fill:#bfb8b1" />
        <g
           id="g8106"
           style="fill:#bfb8b1" />
        <g
           id="g8108"
           style="fill:#bfb8b1" />
      </g>
      <g
         id="g8324"
         transform="matrix(0.05482166,0,0,0.05480775,229.15475,205.72489)"
         style="fill:#bfb8b1">
        <g
           id="g8262"
           style="fill:#bfb8b1">
          <g
             id="g8260"
             style="fill:#bfb8b1">
            <g
               id="group-3svg"
               style="fill:#bfb8b1">
              <path
                 d="m 409.93,209.297 c 0,18.056 -14.627,32.692 -32.683,32.692 -18.047,0 -32.683,-14.636 -32.683,-32.692 0,-18.056 14.636,-32.683 32.683,-32.683 18.056,0 32.683,14.627 32.683,32.683 z"
                 id="path-1_21_"
                 inkscape:connector-curvature="0"
                 style="fill:#bfb8b1" />
              <path
                 d="m 222.011,209.297 c 0,18.056 -14.636,32.692 -32.683,32.692 -18.047,0 -32.683,-14.636 -32.683,-32.692 0,-18.056 14.636,-32.683 32.683,-32.683 18.047,0 32.683,14.627 32.683,32.683 z"
                 id="path-2_21_"
                 inkscape:connector-curvature="0"
                 style="fill:#bfb8b1" />
              <path
                 d="m 172.538,453.621 c -7.434,0 -13.468,-6.025 -13.468,-13.468 0,-58.138 46.762,-105.439 104.245,-105.439 h 45.397 c 57.483,0 104.245,47.04 104.245,104.855 0,7.443 -6.025,13.477 -13.468,13.477 -7.435,0 -13.459,-6.034 -13.459,-13.477 0,-42.955 -34.685,-77.91 -77.317,-77.91 h -45.397 c -42.632,0 -77.308,35.206 -77.308,78.493 -0.002,7.444 -6.036,13.469 -13.47,13.469 z"
                 id="path-3_21_"
                 inkscape:connector-curvature="0"
                 style="fill:#bfb8b1" />
              <path
                 d="M 283.714,567.419 C 127.311,567.419 0.072,440.144 0.072,283.705 0.072,127.275 127.311,0 283.714,0 c 156.394,0 283.633,127.275 283.633,283.705 0,156.438 -127.239,283.714 -283.633,283.714 z m 0,-540.473 c -141.552,0 -256.705,115.181 -256.705,256.759 0,141.588 115.154,256.768 256.705,256.768 141.543,0 256.696,-115.181 256.696,-256.768 0,-141.579 -115.153,-256.759 -256.696,-256.759 z"
                 id="path-4_21_"
                 inkscape:connector-curvature="0"
                 style="fill:#bfb8b1" />
            </g>
          </g>
        </g>
        <g
           id="g8264"
           style="fill:#bfb8b1" />
        <g
           id="g8266"
           style="fill:#bfb8b1" />
        <g
           id="g8268"
           style="fill:#bfb8b1" />
        <g
           id="g8270"
           style="fill:#bfb8b1" />
        <g
           id="g8272"
           style="fill:#bfb8b1" />
        <g
           id="g8274"
           style="fill:#bfb8b1" />
        <g
           id="g8276"
           style="fill:#bfb8b1" />
        <g
           id="g8278"
           style="fill:#bfb8b1" />
        <g
           id="g8280"
           style="fill:#bfb8b1" />
        <g
           id="g8282"
           style="fill:#bfb8b1" />
        <g
           id="g8284"
           style="fill:#bfb8b1" />
        <g
           id="g8286"
           style="fill:#bfb8b1" />
        <g
           id="g8288"
           style="fill:#bfb8b1" />
        <g
           id="g8290"
           style="fill:#bfb8b1" />
        <g
           id="g8292"
           style="fill:#bfb8b1" />
      </g>
      <g
         id="g8620"
         transform="matrix(0.05560057,0,0,0.05558706,208.30271,258.70373)"
         style="fill:#bfb8b1">
        <g
           id="g8558"
           style="fill:#bfb8b1">
          <g
             id="g8556"
             style="fill:#bfb8b1">
            <g
               id="group-9svg"
               style="fill:#bfb8b1">
              <path
                 d="M 411.101,393.094 H 159.693 c -7.434,0 -13.468,-6.034 -13.468,-13.468 0,-7.443 6.034,-13.477 13.468,-13.477 h 251.408 c 7.434,0 13.468,6.034 13.468,13.477 10e-4,7.435 -6.033,13.468 -13.468,13.468 z"
                 id="path-1_49_"
                 inkscape:connector-curvature="0"
                 style="fill:#bfb8b1" />
              <path
                 d="m 404.107,206.415 c 0,17.796 -14.42,32.216 -32.207,32.216 -17.787,0 -32.198,-14.42 -32.198,-32.216 0,-17.787 14.411,-32.207 32.198,-32.207 17.787,0 32.207,14.42 32.207,32.207 z"
                 id="path-2_49_"
                 inkscape:connector-curvature="0"
                 style="fill:#bfb8b1" />
              <path
                 d="m 218.936,206.415 c 0,17.796 -14.42,32.216 -32.198,32.216 -17.787,0 -32.198,-14.42 -32.198,-32.216 0,-17.787 14.411,-32.207 32.198,-32.207 17.787,0 32.198,14.42 32.198,32.207 z"
                 id="path-3_49_"
                 inkscape:connector-curvature="0"
                 style="fill:#bfb8b1" />
              <path
                 d="M 279.732,559.464 C 125.52,559.464 0.068,433.976 0.068,279.737 0.076,125.488 125.529,0 279.732,0 c 154.203,0 279.664,125.488 279.664,279.736 0,154.239 -125.461,279.728 -279.664,279.728 z m 0,-532.518 c -139.352,0 -252.728,113.403 -252.728,252.791 0,139.388 113.376,252.79 252.728,252.79 139.361,0 252.728,-113.403 252.728,-252.791 0,-139.388 -113.367,-252.79 -252.728,-252.79 z"
                 id="path-4_49_"
                 inkscape:connector-curvature="0"
                 style="fill:#bfb8b1" />
            </g>
          </g>
        </g>
        <g
           id="g8560"
           style="fill:#bfb8b1" />
        <g
           id="g8562"
           style="fill:#bfb8b1" />
        <g
           id="g8564"
           style="fill:#bfb8b1" />
        <g
           id="g8566"
           style="fill:#bfb8b1" />
        <g
           id="g8568"
           style="fill:#bfb8b1" />
        <g
           id="g8570"
           style="fill:#bfb8b1" />
        <g
           id="g8572"
           style="fill:#bfb8b1" />
        <g
           id="g8574"
           style="fill:#bfb8b1" />
        <g
           id="g8576"
           style="fill:#bfb8b1" />
        <g
           id="g8578"
           style="fill:#bfb8b1" />
        <g
           id="g8580"
           style="fill:#bfb8b1" />
        <g
           id="g8582"
           style="fill:#bfb8b1" />
        <g
           id="g8584"
           style="fill:#bfb8b1" />
        <g
           id="g8586"
           style="fill:#bfb8b1" />
        <g
           id="g8588"
           style="fill:#bfb8b1" />
      </g>
      <g
         style="fill:#bfb8b1"
         transform="matrix(0.05482166,0,0,0.05480775,-74.899267,146.55806)"
         id="g8732">
        <g
           style="fill:#bfb8b1"
           id="g8700">
          <g
             style="fill:#bfb8b1"
             id="g8698">
            <g
               style="fill:#bfb8b1"
               id="g8696">
              <path
                 style="fill:#bfb8b1"
                 inkscape:connector-curvature="0"
                 id="path8688"
                 d="m 409.93,209.297 c 0,18.056 -14.627,32.692 -32.683,32.692 -18.047,0 -32.683,-14.636 -32.683,-32.692 0,-18.056 14.636,-32.683 32.683,-32.683 18.056,0 32.683,14.627 32.683,32.683 z" />
              <path
                 style="fill:#bfb8b1"
                 inkscape:connector-curvature="0"
                 id="path8690"
                 d="m 222.011,209.297 c 0,18.056 -14.636,32.692 -32.683,32.692 -18.047,0 -32.683,-14.636 -32.683,-32.692 0,-18.056 14.636,-32.683 32.683,-32.683 18.047,0 32.683,14.627 32.683,32.683 z" />
              <path
                 style="fill:#bfb8b1"
                 inkscape:connector-curvature="0"
                 id="path8692"
                 d="m 308.702,451.466 h -45.388 c -57.483,0 -104.253,-46.205 -104.253,-103.014 0,-7.443 6.034,-13.468 13.468,-13.468 7.434,0 13.468,6.025 13.468,13.468 0,42.659 33.958,76.078 77.317,76.078 h 45.388 c 43.359,0 77.317,-32.863 77.317,-74.821 0,-7.443 6.034,-13.468 13.468,-13.468 7.443,0 13.468,6.025 13.468,13.468 0.001,57.06 -45.792,101.757 -104.253,101.757 z" />
              <path
                 style="fill:#bfb8b1"
                 inkscape:connector-curvature="0"
                 id="path8694"
                 d="M 283.714,567.419 C 127.311,567.419 0.072,440.144 0.072,283.705 0.072,127.275 127.311,0 283.714,0 c 156.394,0 283.633,127.275 283.633,283.705 0,156.438 -127.239,283.714 -283.633,283.714 z m 0,-540.473 c -141.552,0 -256.705,115.181 -256.705,256.759 0,141.588 115.154,256.768 256.705,256.768 141.543,0 256.696,-115.181 256.696,-256.768 0,-141.579 -115.153,-256.759 -256.696,-256.759 z" />
            </g>
          </g>
        </g>
        <g
           style="fill:#bfb8b1"
           id="g8702" />
        <g
           style="fill:#bfb8b1"
           id="g8704" />
        <g
           style="fill:#bfb8b1"
           id="g8706" />
        <g
           style="fill:#bfb8b1"
           id="g8708" />
        <g
           style="fill:#bfb8b1"
           id="g8710" />
        <g
           style="fill:#bfb8b1"
           id="g8712" />
        <g
           style="fill:#bfb8b1"
           id="g8714" />
        <g
           style="fill:#bfb8b1"
           id="g8716" />
        <g
           style="fill:#bfb8b1"
           id="g8718" />
        <g
           style="fill:#bfb8b1"
           id="g8720" />
        <g
           style="fill:#bfb8b1"
           id="g8722" />
        <g
           style="fill:#bfb8b1"
           id="g8724" />
        <g
           style="fill:#bfb8b1"
           id="g8726" />
        <g
           style="fill:#bfb8b1"
           id="g8728" />
        <g
           style="fill:#bfb8b1"
           id="g8730" />
      </g>
      <g
         style="fill:#bfb8b1"
         transform="matrix(0.05482166,0,0,0.05480775,-154.04736,181.82374)"
         id="g8778">
        <g
           style="fill:#bfb8b1"
           id="g8746">
          <g
             style="fill:#bfb8b1"
             id="g8744">
            <g
               style="fill:#bfb8b1"
               id="g8742">
              <path
                 style="fill:#bfb8b1"
                 inkscape:connector-curvature="0"
                 id="path8734"
                 d="m 409.93,209.297 c 0,18.056 -14.627,32.692 -32.683,32.692 -18.047,0 -32.683,-14.636 -32.683,-32.692 0,-18.056 14.636,-32.683 32.683,-32.683 18.056,0 32.683,14.627 32.683,32.683 z" />
              <path
                 style="fill:#bfb8b1"
                 inkscape:connector-curvature="0"
                 id="path8736"
                 d="m 222.011,209.297 c 0,18.056 -14.636,32.692 -32.683,32.692 -18.047,0 -32.683,-14.636 -32.683,-32.692 0,-18.056 14.636,-32.683 32.683,-32.683 18.047,0 32.683,14.627 32.683,32.683 z" />
              <path
                 style="fill:#bfb8b1"
                 inkscape:connector-curvature="0"
                 id="path8738"
                 d="m 172.538,453.621 c -7.434,0 -13.468,-6.025 -13.468,-13.468 0,-58.138 46.762,-105.439 104.245,-105.439 h 45.397 c 57.483,0 104.245,47.04 104.245,104.855 0,7.443 -6.025,13.477 -13.468,13.477 -7.435,0 -13.459,-6.034 -13.459,-13.477 0,-42.955 -34.685,-77.91 -77.317,-77.91 h -45.397 c -42.632,0 -77.308,35.206 -77.308,78.493 -0.002,7.444 -6.036,13.469 -13.47,13.469 z" />
              <path
                 style="fill:#bfb8b1"
                 inkscape:connector-curvature="0"
                 id="path8740"
                 d="M 283.714,567.419 C 127.311,567.419 0.072,440.144 0.072,283.705 0.072,127.275 127.311,0 283.714,0 c 156.394,0 283.633,127.275 283.633,283.705 0,156.438 -127.239,283.714 -283.633,283.714 z m 0,-540.473 c -141.552,0 -256.705,115.181 -256.705,256.759 0,141.588 115.154,256.768 256.705,256.768 141.543,0 256.696,-115.181 256.696,-256.768 0,-141.579 -115.153,-256.759 -256.696,-256.759 z" />
            </g>
          </g>
        </g>
        <g
           style="fill:#bfb8b1"
           id="g8748" />
        <g
           style="fill:#bfb8b1"
           id="g8750" />
        <g
           style="fill:#bfb8b1"
           id="g8752" />
        <g
           style="fill:#bfb8b1"
           id="g8754" />
        <g
           style="fill:#bfb8b1"
           id="g8756" />
        <g
           style="fill:#bfb8b1"
           id="g8758" />
        <g
           style="fill:#bfb8b1"
           id="g8760" />
        <g
           style="fill:#bfb8b1"
           id="g8762" />
        <g
           style="fill:#bfb8b1"
           id="g8764" />
        <g
           style="fill:#bfb8b1"
           id="g8766" />
        <g
           style="fill:#bfb8b1"
           id="g8768" />
        <g
           style="fill:#bfb8b1"
           id="g8770" />
        <g
           style="fill:#bfb8b1"
           id="g8772" />
        <g
           style="fill:#bfb8b1"
           id="g8774" />
        <g
           style="fill:#bfb8b1"
           id="g8776" />
      </g>
      <g
         style="fill:#bfb8b1"
         transform="matrix(0.05560057,0,0,0.05558706,-120.04428,112.94588)"
         id="g8824">
        <g
           style="fill:#bfb8b1"
           id="g8792">
          <g
             style="fill:#bfb8b1"
             id="g8790">
            <g
               style="fill:#bfb8b1"
               id="g8788">
              <path
                 style="fill:#bfb8b1"
                 inkscape:connector-curvature="0"
                 id="path8780"
                 d="M 411.101,393.094 H 159.693 c -7.434,0 -13.468,-6.034 -13.468,-13.468 0,-7.443 6.034,-13.477 13.468,-13.477 h 251.408 c 7.434,0 13.468,6.034 13.468,13.477 10e-4,7.435 -6.033,13.468 -13.468,13.468 z" />
              <path
                 style="fill:#bfb8b1"
                 inkscape:connector-curvature="0"
                 id="path8782"
                 d="m 404.107,206.415 c 0,17.796 -14.42,32.216 -32.207,32.216 -17.787,0 -32.198,-14.42 -32.198,-32.216 0,-17.787 14.411,-32.207 32.198,-32.207 17.787,0 32.207,14.42 32.207,32.207 z" />
              <path
                 style="fill:#bfb8b1"
                 inkscape:connector-curvature="0"
                 id="path8784"
                 d="m 218.936,206.415 c 0,17.796 -14.42,32.216 -32.198,32.216 -17.787,0 -32.198,-14.42 -32.198,-32.216 0,-17.787 14.411,-32.207 32.198,-32.207 17.787,0 32.198,14.42 32.198,32.207 z" />
              <path
                 style="fill:#bfb8b1"
                 inkscape:connector-curvature="0"
                 id="path8786"
                 d="M 279.732,559.464 C 125.52,559.464 0.068,433.976 0.068,279.737 0.076,125.488 125.529,0 279.732,0 c 154.203,0 279.664,125.488 279.664,279.736 0,154.239 -125.461,279.728 -279.664,279.728 z m 0,-532.518 c -139.352,0 -252.728,113.403 -252.728,252.791 0,139.388 113.376,252.79 252.728,252.79 139.361,0 252.728,-113.403 252.728,-252.791 0,-139.388 -113.367,-252.79 -252.728,-252.79 z" />
            </g>
          </g>
        </g>
        <g
           style="fill:#bfb8b1"
           id="g8794" />
        <g
           style="fill:#bfb8b1"
           id="g8796" />
        <g
           style="fill:#bfb8b1"
           id="g8798" />
        <g
           style="fill:#bfb8b1"
           id="g8800" />
        <g
           style="fill:#bfb8b1"
           id="g8802" />
        <g
           style="fill:#bfb8b1"
           id="g8804" />
        <g
           style="fill:#bfb8b1"
           id="g8806" />
        <g
           style="fill:#bfb8b1"
           id="g8808" />
        <g
           style="fill:#bfb8b1"
           id="g8810" />
        <g
           style="fill:#bfb8b1"
           id="g8812" />
        <g
           style="fill:#bfb8b1"
           id="g8814" />
        <g
           style="fill:#bfb8b1"
           id="g8816" />
        <g
           style="fill:#bfb8b1"
           id="g8818" />
        <g
           style="fill:#bfb8b1"
           id="g8820" />
        <g
           style="fill:#bfb8b1"
           id="g8822" />
      </g>
    </g>
  </g>
</svg>
